# xmcd CD database file
#
# Track frame offsets:
#	150
#	20187
#	38230
#	54362
#	70505
#	85179
#	101700
#	120110
#	135905
#	150405
#
# Disc length: 2244 seconds
#
# Revision: 3
# Processed by: cddbd v1.4PL0 Copyright (c) Steve Scherf et al.
# Submitted via: CDex 1.50
#
DISCID=6f08c20a
DTITLE=The Buffalo Club - The Buffalo Club
DYEAR=1997
DGENRE=Country
TTITLE0=You Should See Her Now
TTITLE1=Heart On Hold
TTITLE2=The Funny Thing Is
TTITLE3=Never Enough
TTITLE4=All My Life
TTITLE5=If She Don't Love You
TTITLE6=After Alice
TTITLE7=End Of Lonely Road
TTITLE8=Wish For You
TTITLE9=Nothin' Less Than Love
EXTD=YEAR: 1997
EXTT0=
EXTT1=
EXTT2=
EXTT3=
EXTT4=
EXTT5=
EXTT6=
EXTT7=
EXTT8=
EXTT9=
PLAYORDER=
